<svg width="34" height="34" viewBox="0 0 34 34" fill="none" xmlns="http://www.w3.org/2000/svg">
<path d="M27.5 12.5L29.375 8.375L33.5 6.5L29.375 4.625L27.5 0.5L25.625 4.625L21.5 6.5L25.625 8.375L27.5 12.5Z" fill="white"/>
<path d="M27.5 21.5L25.625 25.625L21.5 27.5L25.625 29.375L27.5 33.5L29.375 29.375L33.5 27.5L29.375 25.625L27.5 21.5Z" fill="white"/>
<path d="M16.25 13.25L12.5 5L8.75 13.25L0.5 17L8.75 20.75L12.5 29L16.25 20.75L24.5 17L16.25 13.25ZM13.985 18.485L12.5 21.755L11.015 18.485L7.745 17L11.015 15.515L12.5 12.245L13.985 15.515L17.255 17L13.985 18.485Z" fill="white"/>
</svg>
